<svg width="226" height="100" viewBox="0 0 226 100" fill="none" xmlns="http://www.w3.org/2000/svg">
<g opacity="0.5">
<path d="M57.8765 97.5376V76.7442H68.98V61.8331H57.8765V1.23119H36.2249L0 60.0547V76.7442H39.0007V97.5376H57.8765ZM14.2956 61.8331L39.0007 19.9726V61.8331H14.2956Z" fill="#005BFF"/>
<path d="M139.44 12.9959C134.443 4.37756 125.7 0 113.069 0C100.578 0 91.8341 4.37756 86.8376 12.9959C81.7023 21.751 79.204 34.0629 79.204 50.0684C79.204 66.0739 81.7023 78.3858 86.8376 87.0041C91.8341 95.6224 100.578 100 113.069 100C125.7 100 134.443 95.6224 139.44 87.0041C144.437 78.3858 147.074 66.0739 147.074 50.0684C147.074 34.0629 144.437 21.751 139.44 12.9959ZM101.688 75.513C99.8841 69.6306 98.9126 61.1491 98.9126 50.0684C98.9126 38.3037 99.8841 29.6854 101.688 24.0766C103.632 18.4679 107.379 15.7319 113.069 15.7319C118.899 15.7319 122.646 18.4679 124.45 24.0766C126.255 29.6854 127.087 38.3037 127.087 50.0684C127.087 61.1491 126.255 69.6306 124.45 75.513C122.646 81.5321 118.899 84.4049 113.069 84.4049C107.379 84.4049 103.632 81.5321 101.688 75.513Z" fill="#005BFF"/>
<path d="M214.897 97.5376V76.7442H226V61.8331H214.897V1.23119H193.245L157.02 60.0547V76.7442H196.021V97.5376H214.897ZM171.316 61.8331L196.021 19.9726V61.8331H171.316Z" fill="#005BFF"/>
</g>
</svg>
