<svg width="10" height="9" viewBox="0 0 10 9" fill="none" xmlns="http://www.w3.org/2000/svg">
<path d="M3.00041 5.58657L1.70741 4.29357C1.5188 4.11141 1.2662 4.01062 1.00401 4.0129C0.741809 4.01517 0.490997 4.12034 0.305589 4.30575C0.120181 4.49116 0.0150115 4.74197 0.0127331 5.00417C0.0104547 5.26637 0.111249 5.51897 0.293408 5.70757L3.00041 8.41457L8.70741 2.70757C8.80292 2.61532 8.8791 2.50498 8.93151 2.38297C8.98392 2.26097 9.0115 2.12975 9.01266 1.99697C9.01381 1.86419 8.98851 1.73251 8.93823 1.60962C8.88795 1.48672 8.81369 1.37507 8.7198 1.28117C8.62591 1.18728 8.51426 1.11303 8.39136 1.06275C8.26847 1.01247 8.13679 0.987165 8.00401 0.988319C7.87123 0.989473 7.74001 1.01706 7.618 1.06947C7.496 1.12188 7.38565 1.19806 7.29341 1.29357L3.00041 5.58657Z" fill="white"/>
</svg>
