<svg version="1.1" xmlns="http://www.w3.org/2000/svg" xmlns:xlink="http://www.w3.org/1999/xlink" x="0px" y="0px"
     viewBox="0 0 1210.3 610.6" style="enable-background:new 0 0 2426.3 610.6;" xml:space="preserve">
<path class="st0" d="M1398.6,144.8L1398.6,144.8L1398.6,144.8z"/>
    <g>
	<path class="st2" d="M594.6,268.1c-24.7-39.5-64.2-65-111.3-71.4c-60.1-8.2-118.4,15.6-151.9,61.9c-24.6,34.1-32.6,75.1-22.2,115.6
		c24.8,97.5,124,124.7,186,106.9c70-20,109.2-59.6,119.9-120.9C620.2,330.6,612.7,297.1,594.6,268.1 M424.1,399.8
		c-19.6-6.3-34.2-36.5-27.1-69.3c7-32.8,30.9-55.5,53.1-48.8c19.7,6.1,34.2,38.1,27.3,71C470,387.7,446.5,407.1,424.1,399.8"/>
        <path class="st3" d="M956.2,154.5C922.3,260.7,777.5,503.5,721,526.7c-8,3.3-9.6,4.2-17.9,3.1c-30-4.2-67.4-41.7-79.5-55.6
		c-5.4-6.1-16.9-20.3-7.6-27.8c35.3-28.2,79.2-71.1,81.3-96.3c0.5-5.5-1.3-11.3-3.3-14c-3.3-4.4-95-125.3-104.3-138.1
		c-15.6-22.1-15.5-27.3,1.8-35.7c17.3-8.5,44.8-20,64.1-27.5c19.3-7.4,22.3-2.2,27.7,3.9l82.2,103.4c5.9,4,11.3,2.9,15.6-2.2
		c10.5-12.4,54.9-92.6,61.9-105.2c8.2-14,21.7-10.2,35.3-10.2c14.4-0.1,36.8,0.1,60.1,1.2C960.9,126.9,963,133.2,956.2,154.5"/>
        <path class="st4" d="M997.3,179.8c-37,23-54.6,52-55.5,90.9c-1.2,52.6,71.7,87.5,90,95.4c22,9.5,25.1,20.8,21.1,29.2
		c-5.7,12.6-18.8,15-34.2,11.9c-27.9-5.7-49.6-30.1-71.6-42.4c-12.4-6.8-30.7,16.8-33.4,38.1c-1.2,9.6,1.8,15.1,9.8,21.9
		c20.5,17.8,62.8,59.5,146.8,63.2c20,0.9,71.8-3.1,104-37.1c13.1-13.8,26.8-32,30-57.5c2.2-17.5-1.9-38.9-15.7-59.7
		c-11.6-17.4-32.7-34.9-69.7-50.2c-60-24.7-41-49.6-26.8-54.3c12.2-4,33.5-0.9,69.1,20.5c19.3,11.6,44.7-33.9,28.9-45.3
		C1110.5,146.9,1037.8,154.7,997.3,179.8 M29,122.3c130.2-1,174.3-3.5,291.7-22.8c26.5-4.4,28.6,8.8,33,17.2
		c3.6,7,10.5,43.7,10,53.2c-0.5,9.3,4.2,23-11.7,27.5c-49.5,13.8-62.4,18.1-95.3,27.8c-15.2,4.6-14.2,10.9-13.8,22.5
		c2.3,64.3,23.7,149.4,38.9,196.9c6.4,20,9.3,34.3-4.7,39.6c-19.5,7.1-73.7,21.9-88.3,24.9c-25.2,5.3-28.8-13.2-31.2-22.7
		c-21.4-85.6-32-172.7-34.1-205.3c-1.1-16.6-6.5-32.2-22.1-31.7c-16.1,0.3-34,2.3-68.9,2.9c-18.7,0.4-28.6-0.7-31.1-16.7
		c-2.5-16.1-1.8-88.8,0.9-100.1C5.3,124.2,18.5,122.4,29,122.3"/>
</g>
</svg>
